<?xml version="1.0" encoding="UTF-8"?>
<svg id="Layer_1" data-name="Layer 1" xmlns="http://www.w3.org/2000/svg" viewBox="0 0 722 300">
  <defs>
    <style>
      .cls-1 {
        fill: #fff;
      }

      .cls-2 {
        fill: #1c3139;
      }

      .cls-3 {
        fill: #43bda4;
      }
    </style>
  </defs>
  <rect class="cls-1" y="-.14" width="722" height="300"/>
  <g>
    <g>
      <polygon class="cls-3" points="106.37 273.14 6.77 273.14 6.77 24.73 106.37 24.73 106.37 48.56 30.6 48.56 30.6 249.31 106.37 249.31 106.37 273.14 106.37 273.14"/>
      <polygon class="cls-3" points="715.85 273.14 616.26 273.14 616.26 249.31 692.02 249.31 692.02 48.56 616.26 48.56 616.26 24.73 715.85 24.73 715.85 273.14 715.85 273.14"/>
    </g>
    <g>
      <path class="cls-2" d="m182.36,199.05h-28.73v-10.38h-.34c-4.85,9.34-16.79,13.67-28.04,13.67-30.46,0-48.28-23.88-48.28-51.4,0-31.49,22.67-51.22,48.28-51.22,15.74,0,24.57,7.62,28.04,13.5h.34v-10.21h28.73v96.04h0Zm-52.78-23.53c17.99,0,24.05-15.23,24.05-24.58,0-11.59-7.96-24.4-24.23-24.4s-23.7,13.84-23.7,24.75c0,9,6.58,24.23,23.88,24.23h0Z"/>
      <path class="cls-2" d="m203.14,103.01h27v10.21h.35c2.42-4.67,7.44-13.5,24.05-13.5v28.9c-13.33.34-22.67,3.11-22.67,17.65v52.78h-28.73v-96.04h0Z"/>
      <path class="cls-2" d="m269.77,103.01h26.82v10.21h.35c2.94-4.67,9-13.5,26.13-13.5,9.18,0,19.39,3.81,24.58,8.31,5.19,4.5,11.08,12.12,11.08,30.97v60.05h-28.73v-52.43c0-6.75,0-19.9-15.06-19.9-16.44,0-16.44,14.19-16.44,20.06v52.27h-28.73v-96.04h0Z"/>
      <path class="cls-2" d="m407.89,92.8h-28.72v-21.8h28.72v21.8h0Zm0,106.25h-28.72v-96.04h28.72v96.04h0Z"/>
      <path class="cls-2" d="m525.73,162.54c-5.19,21.8-24.4,39.62-50.35,39.62-29.08,0-51.4-22.84-51.4-51.39s21.98-51.06,50.7-51.06c25.44,0,46.03,16.79,50.87,40.32h-29.07c-3.12-6.58-8.83-13.5-20.77-13.5-13.67-.69-22.84,10.56-22.84,24.4s9.18,24.4,22.84,24.4c11.94,0,17.65-6.92,20.77-12.8h29.24Z"/>
      <path class="cls-2" d="m642.39,199.05h-28.73v-10.38h-.34c-4.84,9.34-16.79,13.67-28.03,13.67-30.46,0-48.29-23.88-48.29-51.4,0-31.49,22.67-51.22,48.29-51.22,15.74,0,24.56,7.62,28.03,13.5h.34v-10.21h28.73v96.04h0Zm-52.78-23.53c18,0,24.05-15.23,24.05-24.58,0-11.59-7.96-24.4-24.23-24.4s-23.7,13.84-23.7,24.75c0,9,6.57,24.23,23.87,24.23h0Z"/>
    </g>
  </g>
</svg>