<svg width="829" height="178" viewBox="0 0 829 178" fill="none" xmlns="http://www.w3.org/2000/svg">
<path d="M91.3401 148.566C96.9521 163.635 109.612 177.571 127.184 177.571L177.571 177.571L177.571 127.192C177.571 109.62 163.629 96.9518 148.56 91.3448C147.513 90.9561 146.784 89.9535 146.784 88.7813C146.784 87.6441 147.493 86.6233 148.56 86.2272C163.629 80.6201 177.571 67.9519 177.571 50.3804L177.571 0.000976562L127.184 0.00097436C109.612 0.000973592 96.9521 13.937 91.3401 29.0056C90.9439 30.0729 89.9231 30.7814 88.7858 30.7814C87.6485 30.7814 86.6277 30.0729 86.2315 29.0056C80.6195 13.937 67.9599 0.000971771 50.3875 0.000971003L0.000793457 0.000968801L0.000791255 50.3804C0.000790487 67.9519 13.9422 80.6201 29.0116 86.2272C30.0585 86.6159 30.7875 87.6184 30.7875 88.7906C30.7875 89.9279 30.079 90.9486 29.0116 91.3448C13.9422 96.9518 0.000788665 109.62 0.000787897 127.192L0.000785695 177.571L50.3875 177.571C67.9599 177.571 80.6195 163.635 86.2315 148.566C86.6277 147.499 87.6485 146.791 88.7858 146.791C89.9231 146.791 90.9439 147.499 91.3401 148.566ZM72.8028 111.867L37.7745 144.889C36.3575 146.227 34.1342 146.194 32.7591 144.819C31.3794 143.439 31.3515 141.221 32.6845 139.804L65.7086 104.777C69.9455 100.289 72.0617 94.5375 72.0617 88.786C72.0617 83.0345 69.9455 77.2829 65.7086 72.7945L32.6846 37.768C31.3515 36.3511 31.3795 34.1326 32.7591 32.7529C34.1342 31.378 36.3575 31.3454 37.7745 32.683L72.8028 65.7053C77.2915 69.9374 83.0386 72.0534 88.7858 72.0534C94.533 72.0534 100.28 69.9374 104.769 65.7053L139.797 32.683C141.214 31.3454 143.437 31.378 144.812 32.7529C146.192 34.1326 146.22 36.3511 144.887 37.768L111.863 72.7945C107.626 77.2829 105.51 83.0345 105.51 88.786C105.51 94.5375 107.626 100.289 111.863 104.777L144.887 139.804C146.22 141.221 146.192 143.439 144.812 144.819C143.437 146.194 141.214 146.227 139.797 144.889L104.769 111.867C100.28 107.635 94.533 105.519 88.7858 105.519C83.0386 105.519 77.2915 107.635 72.8028 111.867Z" fill="#15291F"/>
<path d="M221.964 88.6733C221.964 32.5445 262.26 4.93262 303.228 4.93262C334.793 4.93262 357.627 19.4174 367.253 41.3708L350.016 58.5715L348.225 58.3451C343.747 37.0705 326.734 19.1907 303.004 19.1907C271.438 19.1907 247.485 43.6339 247.485 87.3146C247.485 130.543 274.349 153.628 304.347 153.628C329.867 153.628 348.225 140.501 355.388 114.021L369.94 116.284C363.672 152.496 336.808 172.639 302.556 172.639C260.469 172.64 221.964 144.349 221.964 88.6733Z" fill="#15291F"/>
<path d="M414.333 168.376V170.173H377.339V168.376L384.823 157.824V23.7916L377.339 12.3417V10.5455L406.848 4.93262V157.824L414.333 168.376Z" fill="#15291F"/>
<path d="M421.731 112.104C421.731 77.5766 445.992 51.793 479.688 51.793C513.16 51.793 537.646 77.5766 537.646 112.104C537.646 146.857 513.16 172.64 479.688 172.64C445.992 172.64 421.731 146.857 421.731 112.104ZM513.608 112.104C513.608 84.3028 499.231 64.5726 479.688 64.5726C459.919 64.5726 445.992 84.3028 445.992 112.104C445.992 139.906 459.919 159.861 479.688 159.861C499.231 159.861 513.608 139.906 513.608 112.104Z" fill="#15291F"/>
<path d="M540.968 65.2506L530.249 53.6178V51.793H569.777V53.6178L564.417 65.0224L590.993 143.715L617.122 65.0224L611.762 53.6178L611.985 51.793H643.697V53.6178L633.201 65.2506L594.343 170.174H578.71L540.968 65.2506Z" fill="#15291F"/>
<path d="M694.037 51.793C733.518 51.793 748.182 80.9399 746.377 110.087H662.452C662.903 138.337 678.921 154.704 700.354 154.704C717.049 154.704 728.78 145.511 734.42 129.144L747.28 132.732C741.865 156.722 723.14 172.64 696.067 172.64C660.873 172.64 638.764 145.511 638.764 112.104C638.764 78.9218 659.519 51.793 694.037 51.793ZM722.237 98.8762C721.109 79.8189 711.182 63.6756 694.036 63.6756C676.665 63.6756 665.836 78.9215 663.129 98.8762H722.237Z" fill="#15291F"/>
<path d="M757.144 168.384L765.04 157.866V71.71L757.144 60.2969V58.5065L788.279 52.9118V77.7517C794.145 61.8631 805.652 51.793 820.769 51.793C823.701 51.793 826.409 52.0168 828.665 52.688L827.086 75.2901C803.847 68.3531 792.115 85.3602 788.279 100.13V157.642L798.884 168.384V170.174H757.144V168.384L757.144 168.384Z" fill="#15291F"/>
</svg>
