<svg width="1000" height="1000" viewBox="0 0 1000 1000" fill="none" xmlns="http://www.w3.org/2000/svg">
<rect width="1000" height="1000" fill="white"/>
<path fill-rule="evenodd" clip-rule="evenodd" d="M167.901 502.06H191.588L221.196 590.857L244.881 502.06H274.49L233.038 632.335H209.352L179.744 543.512L150.137 632.335H126.451L85 502.06H114.607L138.294 590.857L167.901 502.06ZM323.47 612.935C342.853 612.935 357.393 602.027 357.393 586.022V578.025C349.883 575.115 339.46 572.932 328.07 572.932C309.652 572.932 298.75 580.442 298.75 593.537V594.027C298.75 606.147 309.653 612.935 323.47 612.935ZM292.255 508.765C303.078 504.857 315.095 502.377 330.783 502.377C368.583 502.377 387 521.175 387 555.355V632.335H357.393V616.577C348.668 626.995 335.873 634.997 316.485 634.997C292.255 634.997 270.933 621.18 270.933 595.48V595C270.933 567.357 292.985 553.777 322.788 553.777C338.295 553.777 347.458 555.96 357.393 559.11V555.96C357.393 538.26 347.017 528.562 326.662 528.562C313.397 528.562 302.943 531.3 292.255 535.562V508.765ZM404.762 632.335V454.688H434.37V632.335H404.762ZM452.135 632.335V454.688H481.743L482.335 632.335H452.135ZM548.488 612.935C567.873 612.935 582.41 602.027 582.41 586.022V578.025C574.9 575.115 564.477 572.932 553.09 572.932C534.672 572.932 523.768 580.442 523.768 593.537V594.027C523.768 606.147 534.673 612.935 548.488 612.935ZM517.272 508.765C528.095 504.857 540.115 502.377 555.8 502.377C593.6 502.377 612.018 521.175 612.018 555.355V632.335H582.41V616.577C573.685 626.995 560.89 634.997 541.502 634.997C517.272 634.997 495.95 621.18 495.95 595.48V595C495.95 567.357 518.005 553.777 547.808 553.777C563.315 553.777 572.475 555.96 582.41 559.11V555.96C582.41 538.26 572.038 528.562 551.683 528.562C538.415 528.562 527.96 531.3 517.272 535.562V508.765ZM629.782 632.335V502.06H659.39V530.91C667.385 511.76 681.807 498.665 704.34 499.635V530.67H702.647C676.962 530.67 659.39 547.395 659.39 581.34V632.335H629.782ZM914.013 548.368V632.335H884.408V559.017C884.408 538.65 875.248 526.062 858.773 526.062C842.778 526.062 831.115 538.405 831.115 559.017V632.335H801.503V557.097C801.503 537.212 792.372 526.062 776.137 526.062C759.912 526.062 748.21 539.132 748.21 559.017V632.335H718.605V502.06H748.21V521.455C756.457 510.06 768.15 499.39 787.777 499.39C806.192 499.39 819.035 508.362 825.817 521.935C836.235 508.362 849.8 499.39 869.187 499.39C897.052 499.39 914.013 517.092 914.013 548.368Z" fill="black"/>
<path d="M522.529 328.415L677.427 262.5V358.075L820.789 297.07V371.258L898.239 338.3V392.335L820.789 425.293V395.94L677.427 456.948V414.103L522.529 480.018V328.415Z" fill="#FF2A1C"/>
</svg>
