<svg width="106" height="49" viewBox="0 0 106 49" fill="none" xmlns="http://www.w3.org/2000/svg">
<path fill-rule="evenodd" clip-rule="evenodd" d="M11.5104 31.0068H14.4973L18.2308 42.2039L21.2175 31.0068H24.951L19.7241 47.4343H16.7373L13.0038 36.2337L9.27034 47.4343H6.28358L1.05664 31.0068H4.79013L7.77689 42.2039L11.5104 31.0068ZM31.1273 44.9879C33.5717 44.9879 35.4049 43.6125 35.4049 41.5943V40.5857C34.4579 40.2189 33.1437 39.9435 31.7076 39.9435C29.3852 39.9435 28.0102 40.8908 28.0102 42.5418V42.6037C28.0102 44.132 29.3852 44.9879 31.1273 44.9879ZM27.1912 31.8521C28.5559 31.3594 30.0714 31.0468 32.0494 31.0468C36.816 31.0468 39.1384 33.417 39.1384 37.7271V47.4343H35.4049V45.4473C34.3047 46.7608 32.6914 47.7701 30.2466 47.7701C27.1912 47.7701 24.5025 46.0277 24.5025 42.7868V42.7264C24.5025 39.2405 27.2835 37.5281 31.0415 37.5281C32.9969 37.5281 34.1522 37.8035 35.4049 38.2007V37.8035C35.4049 35.5716 34.0968 34.3486 31.5302 34.3486C29.8572 34.3486 28.5389 34.6938 27.1912 35.2313V31.8521ZM41.3784 47.4343V25.0332H45.1119V47.4343H41.3784ZM47.3521 47.4343V25.0332H51.0856L51.1601 47.4343H47.3521ZM59.5019 44.9879C61.9463 44.9879 63.7795 43.6125 63.7795 41.5943V40.5857C62.8325 40.2189 61.5183 39.9435 60.0822 39.9435C57.7597 39.9435 56.3848 40.8908 56.3848 42.5418V42.6037C56.3848 44.132 57.7598 44.9879 59.5019 44.9879ZM55.5658 31.8521C56.9305 31.3594 58.446 31.0468 60.424 31.0468C65.1906 31.0468 67.513 33.417 67.513 37.7271V47.4343H63.7795V45.4473C62.6793 46.7608 61.0659 47.7701 58.6212 47.7701C55.5658 47.7701 52.8771 46.0277 52.8771 42.7868V42.7264C52.8771 39.2405 55.658 37.5281 59.4161 37.5281C61.3715 37.5281 62.5268 37.8035 63.7795 38.2007V37.8035C63.7795 35.5716 62.4715 34.3486 59.9048 34.3486C58.2318 34.3486 56.9135 34.6938 55.5658 35.2313V31.8521ZM69.753 47.4343V31.0068H73.4865V34.6448C74.4948 32.2297 76.3134 30.5786 79.1548 30.701V34.6144H78.9411C75.7025 34.6144 73.4865 36.7233 73.4865 41.0038V47.4343H69.753ZM105.594 36.8459V47.4343H101.861V38.1889C101.861 35.6207 100.706 34.0335 98.6284 34.0335C96.6114 34.0335 95.141 35.5898 95.141 38.1889V47.4343H91.4067V37.9469C91.4067 35.4393 90.2556 34.0335 88.2083 34.0335C86.1623 34.0335 84.6866 35.6814 84.6866 38.1889V47.4343H80.9535V31.0068H84.6866V33.4523C85.7267 32.0153 87.2012 30.6701 89.6762 30.6701C91.998 30.6701 93.6177 31.8013 94.473 33.5128C95.7864 31.8013 97.4972 30.6701 99.9418 30.6701C103.456 30.6701 105.594 32.9023 105.594 36.8459Z" fill="white"/>
<path d="M56.2285 9.23063L76.0903 0.799805L76.0903 12.7932L94.4347 5.00648L94.4347 14.6289L104.229 10.4717V17.3002L94.4347 21.4574L94.4347 17.8099L76.0712 25.6047V19.9875L56.2285 28.4102V9.23063Z" fill="#FF441C"/>
</svg>
